<svg version="1.1" xmlns="http://www.w3.org/2000/svg" width="512px" height="512px" transform="rotate(0) scale(1, 1)">
<path d="M0 0 C3.62600911 1.97065712 4.74010325 3.3526172 6.27758789 7.18237305 C7.12238702 11.64676099 6.33245198 14.43809651 4.68359375 18.51953125 C4.40849472 19.24630569 4.13339569 19.97308014 3.84996033 20.72187805 C2.92100168 23.15661181 1.96166932 25.57801583 1 28 C0.31820109 29.75401698 -0.36259838 31.50842273 -1.04248047 33.26318359 C-3.30944989 39.08386204 -5.6227081 44.88571373 -7.9375 50.6875 C-8.77949492 52.80511374 -9.62112373 54.92287307 -10.46240234 57.04077148 C-12.16073413 61.31575034 -13.86039146 65.59019818 -15.56103516 69.86425781 C-18.78880492 77.97996561 -21.99830704 86.10285826 -25.2036438 94.22744751 C-26.08174464 96.45287515 -26.96058549 98.67800914 -27.83959961 100.90307617 C-31.14767602 109.28093954 -34.43724216 117.66594649 -37.71826172 126.05444336 C-38.13176376 127.11141167 -38.54526581 128.16837997 -38.97129822 129.25737762 C-39.98094891 131.83821913 -40.99051441 134.41909392 -42 137 C-41.3882674 137.00059709 -40.7765348 137.00119418 -40.14626485 137.00180936 C-3.90494424 137.03768883 32.33628869 137.09430546 68.57753174 137.17792095 C72.92725715 137.18793863 77.27698294 137.19778272 81.62670898 137.20751953 C82.49267572 137.2094609 83.35864245 137.21140228 84.2508506 137.21340248 C98.27983134 137.2444393 112.30879572 137.26140782 126.33780434 137.27319422 C140.72858317 137.28559708 155.11927599 137.31307887 169.51000053 137.35461307 C178.39273435 137.37977331 187.27532555 137.39311544 196.15809552 137.39142957 C202.24604191 137.39139986 208.33384284 137.40599228 214.42173257 137.43216428 C217.93628037 137.44683907 221.45052985 137.4549888 224.96510315 137.44580269 C228.77333117 137.43601728 232.58103297 137.45698272 236.38920593 137.48101807 C237.50301673 137.47325765 238.61682753 137.46549723 239.76439017 137.45750165 C247.23945921 137.54138379 247.23945921 137.54138379 251.16317463 139.90743637 C253.76417719 142.87057236 254.12630061 144.45815771 254.14717102 148.30696106 C254.15790398 149.66333931 254.15790398 149.66333931 254.16885376 151.04711914 C254.17288712 152.53937012 254.17288712 152.53937012 254.17700195 154.06176758 C254.18685875 155.63023689 254.18685875 155.63023689 254.19691467 157.23039246 C254.21667724 160.70177272 254.22831638 164.17310968 254.23828125 167.64453125 C254.24235678 168.82797308 254.2464323 170.01141491 254.25063133 171.23071861 C254.27150389 177.49341026 254.28580095 183.7560799 254.29516602 190.01879883 C254.30623775 196.49555835 254.34064347 202.97197498 254.38033772 209.44861317 C254.40645074 214.42169342 254.4148531 219.3946913 254.41844749 224.36783409 C254.42332656 226.7556865 254.43497781 229.14353491 254.45348549 231.53132057 C254.477765 234.87117512 254.47693209 238.21013353 254.4699707 241.55004883 C254.48278076 242.53881012 254.49559082 243.52757141 254.50878906 244.54629517 C254.47570838 248.89449791 254.41765938 251.32217736 252.09562683 255.09062195 C248.9972064 257.91367034 247.31998289 258.12629858 243.22486687 258.1386652 C242.21070005 258.14413964 241.19653324 258.14961409 240.1516341 258.15525442 C238.46781011 258.15672158 238.46781011 258.15672158 236.74996948 258.15821838 C234.97106093 258.16562535 234.97106093 258.16562535 233.15621483 258.17318195 C229.85426792 258.18592523 226.55236348 258.19419097 223.25040174 258.20060861 C219.69347242 258.20859802 216.13656469 258.22230079 212.57965088 258.23532104 C206.41368153 258.25710455 200.24771002 258.27524217 194.08172226 258.29092598 C185.16666349 258.31360756 176.2516286 258.34175274 167.33659007 258.37124526 C152.87365522 258.41894219 138.41071061 258.46220067 123.94775391 258.50268555 C109.89566285 258.54202979 95.84358047 258.58345344 81.79150391 258.62768555 C80.92580064 258.63040982 80.06009737 258.63313409 79.16816066 258.63594092 C74.82532116 258.64962022 70.48248179 258.66334053 66.13964248 258.67708123 C30.09311299 258.791079 -5.953435 258.89788104 -42 259 C-39.31223835 265.84614254 -36.62407458 272.69212706 -33.93545812 279.53793395 C-32.68572862 282.72005256 -31.43611528 285.90221667 -30.18681335 289.08450317 C-22.19021556 309.45275241 -14.1538017 329.80495353 -6.08392906 350.14427567 C-4.71959316 353.58576007 -3.35894722 357.02869553 -1.99932861 360.4720459 C-1.32413372 362.18005434 -0.64745971 363.88747869 0.03057861 365.59436035 C1.01526889 368.07436904 1.9945695 370.55644337 2.97265625 373.0390625 C3.4116349 374.13956436 3.4116349 374.13956436 3.85948181 375.26229858 C7.48720109 384.51275456 7.48720109 384.51275456 5.8125 389.625 C3.17142857 394.54285714 3.17142857 394.54285714 0 396 C-6.01833493 396.66086194 -8.97326087 395.94644802 -13.73120117 392.24169922 C-14.37677979 391.70818848 -15.0223584 391.17467773 -15.6875 390.625 C-16.7245105 389.80733154 -16.7245105 389.80733154 -17.7824707 388.97314453 C-19.1943135 387.8587966 -20.60023142 386.73689932 -22 385.60742188 C-24.33729547 383.72891194 -26.71201749 381.90478036 -29.09692383 380.08740234 C-30.68811428 378.87453177 -32.27270153 377.65352451 -33.85546875 376.4296875 C-37.06673134 373.94843865 -40.28275016 371.47347444 -43.5 369 C-44.58335752 368.16669812 -45.66669088 367.33336481 -46.75 366.5 C-47.28625 366.0875 -47.8225 365.675 -48.375 365.25 C-92.25 331.5 -92.25 331.5 -93.87402344 330.25073242 C-94.96058779 329.41492624 -96.04717645 328.57915165 -97.13378906 327.7434082 C-99.79288548 325.69816364 -102.4514994 323.65230009 -105.109375 321.60546875 C-111.23103457 316.8924 -117.36160412 312.19125402 -123.5 307.5 C-130.67781092 302.01437558 -137.84245047 296.51203249 -145 291 C-147.16644651 289.33304708 -149.33322497 287.66652587 -151.5 286 C-152.58333938 285.16667453 -153.66667272 284.3333412 -154.75 283.5 C-155.28625 283.0875 -155.8225 282.675 -156.375 282.25 C-179.66666667 264.33333333 -202.95833333 246.41666667 -226.25 228.5 C-227.0548584 227.8810083 -227.0548584 227.8810083 -227.87597656 227.24951172 C-228.95639383 226.4182466 -230.03647356 225.58654258 -231.11621094 224.75439453 C-233.8665209 222.63564337 -236.62275065 220.52545458 -239.390625 218.4296875 C-241.59544806 216.75879776 -243.78631421 215.07221108 -245.96484375 213.3671875 C-247.89265245 211.86364558 -249.84133647 210.38620946 -251.81640625 208.9453125 C-255.8626085 205.79193422 -258.58731835 203.37736569 -259.25 198.125 C-258.7829522 193.35965288 -256.68061242 191.15369915 -253.25 187.9375 C-251.18657401 186.24612396 -249.125512 184.60685576 -247 183 C-246.02804688 182.24847656 -245.05609375 181.49695313 -244.0546875 180.72265625 C-242.08083982 179.22516381 -240.09479489 177.74363006 -238.09765625 176.27734375 C-234.88449683 173.91508405 -231.71844617 171.50019635 -228.5625 169.0625 C-228.02254395 168.64613281 -227.48258789 168.22976562 -226.92626953 167.80078125 C-225.83103066 166.95613408 -224.73597892 166.1112442 -223.64111328 165.26611328 C-220.92977871 163.17432793 -218.21471548 161.08739443 -215.5 159 C-214.41664851 158.16669027 -213.33331518 157.33335693 -212.25 156.5 C-184.08333333 134.83333333 -155.91666667 113.16666667 -127.75 91.5 C-127.21407227 91.0877417 -126.67814453 90.6754834 -126.12597656 90.25073242 C-125.03941221 89.41492624 -123.95282355 88.57915165 -122.86621094 87.7434082 C-120.20711452 85.69816364 -117.5485006 83.65230009 -114.890625 81.60546875 C-108.03983176 76.33103962 -101.17616091 71.07374453 -94.30664062 65.82373047 C-87.86052906 60.89614609 -81.42847258 55.95056996 -75 51 C-72.83355349 49.33304708 -70.66677503 47.66652587 -68.5 46 C-67.41666062 45.16667453 -66.33332728 44.3333412 -65.25 43.5 C-58.75 38.5 -52.25 33.5 -45.75 28.5 C-45.21391113 28.08758057 -44.67782227 27.67516113 -44.12548828 27.25024414 C-43.04069668 26.4158768 -41.95573535 25.58173009 -40.87060547 24.74780273 C-38.18315719 22.68205351 -35.49864315 20.61271673 -32.8203125 18.53515625 C-30.13863931 16.45565887 -27.44181943 14.39676617 -24.74169922 12.34130859 C-22.85522357 10.88850551 -20.99300122 9.40716592 -19.12890625 7.92578125 C-17.81570691 6.90807594 -16.50191607 5.89113336 -15.1875 4.875 C-14.2905542 4.14615601 -14.2905542 4.14615601 -13.37548828 3.40258789 C-8.77335799 -0.10201367 -5.76622561 -0.62190706 0 0 Z " fill="#bbbbbb" transform="translate(258,58)"/>
</svg>