<?xml version="1.0" encoding="UTF-8"?>
<svg version="1.1" xmlns="http://www.w3.org/2000/svg" width="245" height="125">
<path d="M0 0 C3.78898623 2.19632761 7.55516357 1.6948142 11.7421875 0.8359375 C15.32753093 0.13635829 18.65168867 0.21417087 22.3046875 0.3359375 C23.3046875 1.3359375 23.3046875 1.3359375 23.4296875 4.5859375 C23.32633002 7.68666178 22.95830343 10.32722924 22.3046875 13.3359375 C21.53382813 13.51769531 20.76296875 13.69945313 19.96875 13.88671875 C18.96585938 14.13808594 17.96296875 14.38945313 16.9296875 14.6484375 C15.93195313 14.89207031 14.93421875 15.13570312 13.90625 15.38671875 C10.9961889 16.15787608 10.9961889 16.15787608 9.3046875 19.3359375 C9.0544718 22.41959621 9.0544718 22.41959621 9.3046875 25.3359375 C9.6346875 25.6659375 9.9646875 25.9959375 10.3046875 26.3359375 C10.77462999 41.44123184 2.56060484 58.45661037 -6.9453125 69.7109375 C-17.00047127 80.20845521 -30.87310665 86.9924813 -45.41796875 87.57421875 C-55.89697602 87.79065432 -64.95618655 87.59592928 -74.6953125 83.3359375 C-75.49839844 82.9853125 -76.30148438 82.6346875 -77.12890625 82.2734375 C-90.6220431 75.53856157 -101.54785298 62.40587346 -106.6953125 48.3359375 C-108.28259056 43.16038348 -109.73606295 37.94680498 -111.07226562 32.70092773 C-112.89839899 25.86551785 -114.67639359 21.78376071 -120.93359375 17.97265625 C-121.61808594 17.65941406 -122.30257812 17.34617187 -123.0078125 17.0234375 C-124.2246875 16.4665625 -125.4415625 15.9096875 -126.6953125 15.3359375 C-126.6953125 10.7159375 -126.6953125 6.0959375 -126.6953125 1.3359375 C-116.76460463 -2.30532205 -106.7423372 -4.96458364 -96.4453125 -7.3515625 C-95.1670459 -7.64877197 -93.8887793 -7.94598145 -92.57177734 -8.25219727 C-61.92012554 -15.25857289 -27.99735879 -17.28532586 0 0 Z " fill="#E5E5E9" transform="translate(174.6953125,24.6640625)"/>
<path d="M0 0 C3.78898623 2.19632761 7.55516357 1.6948142 11.7421875 0.8359375 C15.32753093 0.13635829 18.65168867 0.21417087 22.3046875 0.3359375 C23.3046875 1.3359375 23.3046875 1.3359375 23.4296875 4.5859375 C23.32633002 7.68666178 22.95830343 10.32722924 22.3046875 13.3359375 C21.53382813 13.51769531 20.76296875 13.69945313 19.96875 13.88671875 C18.96585938 14.13808594 17.96296875 14.38945313 16.9296875 14.6484375 C15.93195313 14.89207031 14.93421875 15.13570312 13.90625 15.38671875 C10.9961889 16.15787608 10.9961889 16.15787608 9.3046875 19.3359375 C9.0544718 22.41959621 9.0544718 22.41959621 9.3046875 25.3359375 C9.6346875 25.6659375 9.9646875 25.9959375 10.3046875 26.3359375 C10.77462999 41.44123184 2.56060484 58.45661037 -6.9453125 69.7109375 C-17.00047127 80.20845521 -30.87310665 86.9924813 -45.41796875 87.57421875 C-55.89697602 87.79065432 -64.95618655 87.59592928 -74.6953125 83.3359375 C-75.49839844 82.9853125 -76.30148438 82.6346875 -77.12890625 82.2734375 C-90.6220431 75.53856157 -101.54785298 62.40587346 -106.6953125 48.3359375 C-108.28259056 43.16038348 -109.73606295 37.94680498 -111.07226562 32.70092773 C-112.89839899 25.86551785 -114.67639359 21.78376071 -120.93359375 17.97265625 C-121.61808594 17.65941406 -122.30257812 17.34617187 -123.0078125 17.0234375 C-124.2246875 16.4665625 -125.4415625 15.9096875 -126.6953125 15.3359375 C-126.6953125 10.7159375 -126.6953125 6.0959375 -126.6953125 1.3359375 C-116.76460463 -2.30532205 -106.7423372 -4.96458364 -96.4453125 -7.3515625 C-95.1670459 -7.64877197 -93.8887793 -7.94598145 -92.57177734 -8.25219727 C-61.92012554 -15.25857289 -27.99735879 -17.28532586 0 0 Z M-68.6953125 -7.6640625 C-68.6953125 -7.0040625 -68.6953125 -6.3440625 -68.6953125 -5.6640625 C-69.52933594 -5.66148438 -70.36335938 -5.65890625 -71.22265625 -5.65625 C-80.87566733 -5.32453141 -86.2765964 -3.31575132 -92.91796875 3.67578125 C-101.16360576 13.38797439 -102.66009265 21.60805749 -101.89794922 34.13867188 C-100.47038458 49.61828846 -92.9275681 61.5740355 -81.1328125 71.3984375 C-79.13476136 73.06633856 -77.46404152 74.60451026 -75.7578125 76.5859375 C-72.73503664 79.15071702 -69.53266395 79.64630672 -65.6953125 80.3359375 C-64.86644531 80.51253906 -64.03757813 80.68914062 -63.18359375 80.87109375 C-58.04280717 81.55614818 -52.93862997 81.56080315 -47.7578125 81.5859375 C-46.69884766 81.6065625 -45.63988281 81.6271875 -44.54882812 81.6484375 C-38.45941066 81.67882761 -34.07927617 81.24618813 -28.6953125 78.3359375 C-28.6953125 77.6759375 -28.6953125 77.0159375 -28.6953125 76.3359375 C-27.80714844 76.08714844 -26.91898437 75.83835937 -26.00390625 75.58203125 C-16.58293766 72.03387425 -10.16611951 63.00407131 -5.6953125 54.3359375 C-4.15469435 50.72393946 -2.82853725 47.09507551 -1.6953125 43.3359375 C-1.41300781 42.43294922 -1.41300781 42.43294922 -1.125 41.51171875 C1.03714074 30.56342427 -0.13015114 20.91275895 -5.66015625 11.29296875 C-12.45207679 1.42447767 -24.29008301 -4.95279485 -35.96264648 -7.32202148 C-42.02791726 -8.08119636 -48.15667068 -7.86547997 -54.2578125 -7.7890625 C-55.66210297 -7.77900985 -57.06640043 -7.76988805 -58.47070312 -7.76171875 C-61.87908735 -7.73829343 -65.2871075 -7.70548996 -68.6953125 -7.6640625 Z " fill="#F9AB17" transform="translate(174.6953125,24.6640625)"/>
<path d="M0 0 C2.00720923 0.28674418 4.0085944 0.61866701 6 1 C6 1.66 6 2.32 6 3 C6.70125 3.061875 7.4025 3.12375 8.125 3.1875 C12.00950614 4.28529521 14.90708716 5.49771824 17 9 C17.51460706 13.37681265 17.34677355 17.61395682 17 22 C17.66 22 18.32 22 19 22 C18.50299922 31.45609381 17.60929249 40.65855999 16 50 C15.8659375 51.00417969 15.731875 52.00835937 15.59375 53.04296875 C13.29600259 64.48635554 4.12840357 74.51402975 -5.3125 80.8125 C-20.02269766 89.55184496 -36.99490062 92.96833317 -53.94921875 89.28125 C-57.07993087 88.36241378 -60.01210153 87.30693688 -63 86 C-63.80308594 85.649375 -64.60617188 85.29875 -65.43359375 84.9375 C-75.80789693 79.75933827 -86.45028457 69.83372833 -91 59 C-90.625 56.75 -90.625 56.75 -90 55 C-87.19572929 55.64097616 -85.44178387 56.41139575 -83.6953125 58.73828125 C-82.84715511 60.13695074 -82.0140658 61.54485475 -81.1953125 62.9609375 C-79.3011513 66.19215367 -77.39701093 69.30149454 -74 71 C-74 71.66 -74 72.32 -74 73 C-73.13375 73.226875 -72.2675 73.45375 -71.375 73.6875 C-68.07795077 74.96968581 -66.23930441 76.50821073 -63.6328125 78.828125 C-60.72884795 80.91231009 -57.46892274 81.41334395 -54 82 C-53.17371094 82.17660156 -52.34742188 82.35320312 -51.49609375 82.53515625 C-46.35208575 83.21910815 -41.24603795 83.18435656 -36.0625 83.1875 C-35.00353516 83.19974609 -33.94457031 83.21199219 -32.85351562 83.22460938 C-27.16675314 83.2352521 -22.36414869 82.9304831 -17 81 C-17 80.34 -17 79.68 -17 79 C-15.53622604 78.08514127 -14.02605511 77.2441948 -12.5 76.4375 C-1.27186005 69.83364336 5.77093614 58.55680338 9.16015625 46.07421875 C11.83817844 34.36771733 10.7203781 24.41025452 4.921875 13.953125 C3.05210462 10.96542872 3.05210462 10.96542872 0.78515625 8.28125 C-1 6 -1 6 -1.3125 3.25 C-1 1 -1 1 0 0 Z " fill="#734D46" transform="translate(163,22)"/>
<path d="M0 0 C3.78898623 2.19632761 7.55516357 1.6948142 11.7421875 0.8359375 C15.32753093 0.13635829 18.65168867 0.21417087 22.3046875 0.3359375 C23.3046875 1.3359375 23.3046875 1.3359375 23.4296875 4.5859375 C23.32633002 7.68666178 22.95830343 10.32722924 22.3046875 13.3359375 C21.53382813 13.51769531 20.76296875 13.69945313 19.96875 13.88671875 C18.96585937 14.13808594 17.96296875 14.38945313 16.9296875 14.6484375 C15.93195313 14.89207031 14.93421875 15.13570312 13.90625 15.38671875 C10.9961889 16.15787608 10.9961889 16.15787608 9.3046875 19.3359375 C9.0544718 22.41959621 9.0544718 22.41959621 9.3046875 25.3359375 C9.6346875 25.6659375 9.9646875 25.9959375 10.3046875 26.3359375 C10.38612796 34.10535772 7.96602775 41.13175133 5.3046875 48.3359375 C4.6446875 48.0059375 3.9846875 47.6759375 3.3046875 47.3359375 C4.63802083 38.00260417 5.97135417 28.66927083 7.3046875 19.3359375 C6.6446875 19.3359375 5.9846875 19.3359375 5.3046875 19.3359375 C5.3046875 15.0459375 5.3046875 10.7559375 5.3046875 6.3359375 C3.8196875 5.8409375 3.8196875 5.8409375 2.3046875 5.3359375 C1.8509375 4.8615625 1.3971875 4.3871875 0.9296875 3.8984375 C-1.08107464 1.96501236 -3.08583455 1.2527811 -5.6953125 0.3359375 C-5.6953125 -0.3240625 -5.6953125 -0.9840625 -5.6953125 -1.6640625 C-7.6753125 -1.6640625 -9.6553125 -1.6640625 -11.6953125 -1.6640625 C-11.6953125 0.3159375 -11.6953125 2.2959375 -11.6953125 4.3359375 C-14.0941042 3.15134901 -16.4659087 1.92904735 -18.83203125 0.6796875 C-25.3420942 -2.72167863 -31.36336552 -5.52634659 -38.6953125 -6.6640625 C-39.1903125 -8.6440625 -39.1903125 -8.6440625 -39.6953125 -10.6640625 C-51.2453125 -10.6640625 -62.7953125 -10.6640625 -74.6953125 -10.6640625 C-54.45182594 -20.78580578 -18.44384365 -11.38706869 0 0 Z " fill="#C6654E" transform="translate(174.6953125,24.6640625)"/>
<path d="M0 0 C0.495 1.98 0.495 1.98 1 4 C-8.9 4 -18.8 4 -29 4 C-29 4.66 -29 5.32 -29 6 C-29.83402344 6.07476563 -30.66804688 6.14953125 -31.52734375 6.2265625 C-39.56364662 7.16551198 -44.76579977 8.87567633 -51 14 C-51.721875 14.53882813 -52.44375 15.07765625 -53.1875 15.6328125 C-58.34269364 19.70768983 -60.86728676 23.81232541 -63 30 C-64.953125 29.203125 -64.953125 29.203125 -67 28 C-68.00227105 23.65682543 -68.10838961 19.44397402 -68 15 C-67.34 15 -66.68 15 -66 15 C-66 12.69 -66 10.38 -66 8 C-63.69 8 -61.38 8 -59 8 C-59 7.01 -59 6.02 -59 5 C-39.27021875 -0.1920477 -20.31769639 -0.14390871 0 0 Z " fill="#DFA379" transform="translate(135,13)"/>
<path d="M0 0 C2.00720923 0.28674418 4.0085944 0.61866701 6 1 C6 1.66 6 2.32 6 3 C6.70125 3.061875 7.4025 3.12375 8.125 3.1875 C12.00950614 4.28529521 14.90708716 5.49771824 17 9 C17.51460706 13.37681265 17.34677355 17.61395682 17 22 C17.66 22 18.32 22 19 22 C18.56891497 30.50825713 18.01290353 38.69433011 16 47 C13.60175053 44.60175053 13.68563796 43.72664782 13.4375 40.4375 C13.41550697 37.41952212 13.41550697 37.41952212 12 35 C11.58323052 33.23397681 11.1922262 31.46185699 10.8125 29.6875 C8.92405426 21.93006113 5.89064665 14.56131827 0.828125 8.32421875 C-1 6 -1 6 -1.3125 3.25 C-1 1 -1 1 0 0 Z " fill="#472725" transform="translate(163,22)"/>
<path d="M0 0 C0.66 0.99 1.32 1.98 2 3 C2.66 3.33 3.32 3.66 4 4 C3.67 4.33 3.34 4.66 3 5 C3.06727129 6.83798933 3.06727129 6.83798933 3.375 9 C3.46523437 9.81984375 3.55546875 10.6396875 3.6484375 11.484375 C3.94753982 13.95384004 3.94753982 13.95384004 4.5390625 16.140625 C5.98132018 22.74078727 3.49592843 27.10062798 0.16796875 32.7734375 C-4.24633033 39.34318712 -9.63312881 46.63686315 -17 50 C-20.875 49.75 -20.875 49.75 -24 49 C-24 48.01 -24 47.02 -24 46 C-22.3125 44.5625 -22.3125 44.5625 -20 43 C-9.77335669 35.36625366 -3.11956288 23.53888778 -1 11 C-0.5775087 7.33840874 -0.25682933 3.67671456 0 0 Z " fill="#78352D" transform="translate(174,53)"/>
<path d="M0 0 C3.04187801 1.78422761 5.84851753 2.02252623 9.32421875 2.36328125 C9.32421875 2.69328125 9.32421875 3.02328125 9.32421875 3.36328125 C3.33428828 3.67854075 -0.31138481 3.04547947 -5.67578125 0.36328125 C-5.67578125 -0.29671875 -5.67578125 -0.95671875 -5.67578125 -1.63671875 C-7.65578125 -1.63671875 -9.63578125 -1.63671875 -11.67578125 -1.63671875 C-11.67578125 0.34328125 -11.67578125 2.32328125 -11.67578125 4.36328125 C-14.07457295 3.17869276 -16.44637745 1.9563911 -18.8125 0.70703125 C-25.32256295 -2.69433488 -31.34383427 -5.49900284 -38.67578125 -6.63671875 C-39.17078125 -8.61671875 -39.17078125 -8.61671875 -39.67578125 -10.63671875 C-51.22578125 -10.63671875 -62.77578125 -10.63671875 -74.67578125 -10.63671875 C-54.39320308 -20.77800783 -18.50698798 -11.32033279 0 0 Z " fill="#DA844F" transform="translate(174.67578125,24.63671875)"/>
<path d="M0 0 C0.82421875 2.69921875 0.82421875 2.69921875 1 6 C-1.16796875 8.45703125 -1.16796875 8.45703125 -4.1875 10.8125 C-9.20128982 14.92885228 -12.11435728 18.7547513 -14 25 C-15.953125 24.203125 -15.953125 24.203125 -18 23 C-19.00227105 18.65682543 -19.10838961 14.44397402 -19 10 C-18.34 10 -17.68 10 -17 10 C-17 7.69 -17 5.38 -17 3 C-14.69 3 -12.38 3 -10 3 C-10 2.34 -10 1.68 -10 1 C-2.25 0 -2.25 0 0 0 Z " fill="#492A28" transform="translate(86,18)"/>
<path d="M0 0 C1.65 0 3.3 0 5 0 C5.33 2.31 5.66 4.62 6 7 C6.66 7 7.32 7 8 7 C8 8.32 8 9.64 8 11 C8.66 11.33 9.32 11.66 10 12 C9.01 12.495 9.01 12.495 8 13 C7.31270746 15.11846285 7.31270746 15.11846285 6.875 17.5625 C6.70742188 18.38878906 6.53984375 19.21507813 6.3671875 20.06640625 C6.24601562 20.70449219 6.12484375 21.34257813 6 22 C5.67 21.360625 5.34 20.72125 5 20.0625 C1.97670168 16.9447236 -0.73656724 17.27956936 -5 17 C-6.75747614 12.49646738 -7.19294408 8.82360189 -7 4 C-4.6921509 2.84607545 -2.52769669 2.46562834 0 2 C0 1.34 0 0.68 0 0 Z " fill="#473634" transform="translate(56,25)"/>
<path d="M0 0 C0 0.66 0 1.32 0 2 C-2.31 2 -4.62 2 -7 2 C-7 4.31 -7 6.62 -7 9 C-7.66 9 -8.32 9 -9 9 C-8.91276622 10.77174819 -8.80458345 12.54247377 -8.6875 14.3125 C-8.62949219 15.29863281 -8.57148437 16.28476562 -8.51171875 17.30078125 C-7.95377187 20.24384457 -7.31459868 21.18182999 -5 23 C-4.69707031 22.39671875 -4.39414063 21.7934375 -4.08203125 21.171875 C-1.61038764 16.4567395 0.43896959 12.99724856 5 10 C3.77201385 12.55830448 2.42944859 14.98063524 1 17.4375 C-0.60329211 20.21334903 -1.90190477 22.98023812 -3 26 C-5.31 25.34 -7.62 24.68 -10 24 C-10 23.34 -10 22.68 -10 22 C-10.99 22.33 -11.98 22.66 -13 23 C-12.67 19.7 -12.34 16.4 -12 13 C-12.66 13 -13.32 13 -14 13 C-14.33 10.69 -14.66 8.38 -15 6 C-16.65 6 -18.3 6 -20 6 C-20 6.66 -20 7.32 -20 8 C-22 9 -24 10 -26 11 C-25.67 14.63 -25.34 18.26 -25 22 C-25.99 21.67 -26.98 21.34 -28 21 C-28 16.38 -28 11.76 -28 7 C-7.72137405 0 -7.72137405 0 0 0 Z " fill="#995944" transform="translate(76,19)"/>
<path d="M0 0 C-0.33 1.32 -0.66 2.64 -1 4 C-2.32 4 -3.64 4 -5 4 C-4.896875 4.9075 -4.79375 5.815 -4.6875 6.75 C-5 10 -5 10 -7.25 11.9375 C-8.1575 12.618125 -9.065 13.29875 -10 14 C-11.11530101 15.6948297 -11.11530101 15.6948297 -12.0625 17.5625 C-14.88943317 22.57802659 -14.88943317 22.57802659 -18 24 C-21.75 23.6875 -21.75 23.6875 -25 23 C-25 22.01 -25 21.02 -25 20 C-23.3125 18.5625 -23.3125 18.5625 -21 17 C-16.18571793 13.45741508 -13.17383604 9.42834745 -9.921875 4.453125 C-6.99733169 0.72017135 -4.71938945 -1.57312982 0 0 Z " fill="#663F3E" transform="translate(175,79)"/>
<path d="M0 0 C0 0.66 0 1.32 0 2 C1.98 2.33 3.96 2.66 6 3 C2.90294589 5.52654415 -0.19955953 7.13034774 -3.875 8.6875 C-4.88304687 9.12449219 -5.89109375 9.56148437 -6.9296875 10.01171875 C-10.13683986 11.04404642 -12.65419426 11.18476838 -16 11 C-16 10.01 -16 9.02 -16 8 C-17.02738281 8.02320312 -18.05476563 8.04640625 -19.11328125 8.0703125 C-35.49902843 8.32788773 -35.49902843 8.32788773 -43 6 C-43.66 5.34 -44.32 4.68 -45 4 C-44.12927856 4.10501831 -44.12927856 4.10501831 -43.2409668 4.2121582 C-36.41820864 4.97203407 -29.67408658 5.18320345 -22.8125 5.1875 C-21.25112305 5.20586914 -21.25112305 5.20586914 -19.65820312 5.22460938 C-14.03429 5.23532159 -9.30712709 4.89915581 -4 3 C-4 2.34 -4 1.68 -4 1 C-2 0 -2 0 0 0 Z " fill="#C38066" transform="translate(150,100)"/>
<path d="M0 0 C0.33 0.66 0.66 1.32 1 2 C3.52733235 2.65555119 3.52733235 2.65555119 6 3 C6.22523024 6.62415933 6.42731308 10.24924219 6.625 13.875 C6.68945312 14.90753906 6.75390625 15.94007812 6.8203125 17.00390625 C6.871875 17.99003906 6.9234375 18.97617187 6.9765625 19.9921875 C7.02893066 20.90339355 7.08129883 21.81459961 7.13525391 22.75341797 C7 25 7 25 5 27 C4.32471777 25.42032193 3.66010306 23.83608097 3 22.25 C2.443125 20.92742188 2.443125 20.92742188 1.875 19.578125 C1 17 1 17 1 13 C0.01 12.67 -0.98 12.34 -2 12 C-3.62323754 8.24092359 -4.23994929 5.07913787 -4 1 C-2 0 -2 0 0 0 Z " fill="#F18918" transform="translate(66,41)"/>
<path d="M0 0 C3.13795032 0.58380471 5.34681163 1.17188369 7.37109375 3.73828125 C8.21459022 5.13359785 9.03730977 6.54166518 9.83984375 7.9609375 C11.68932696 11.21154435 13.61013174 14.30506587 17 16 C17 16.66 17 17.32 17 18 C17.66 18.33 18.32 18.66 19 19 C18.67 20.65 18.34 22.3 18 24 C9.71989046 20.31995131 3.63800568 12.10283082 0 4 C0 2.68 0 1.36 0 0 Z " fill="#E88B32" transform="translate(72,77)"/>
<path d="M0 0 C0.99 0.33 1.98 0.66 3 1 C3 5.29 3 9.58 3 14 C3.66 14 4.32 14 5 14 C4.56891497 22.50825713 4.01290353 30.69433011 2 39 C-0.39824947 36.60175053 -0.31436204 35.72664782 -0.5625 32.4375 C-0.58449303 29.41952212 -0.58449303 29.41952212 -2 27 C-2.36760731 24.67182036 -2.70241581 22.3381615 -3 20 C-2.195625 19.54625 -1.39125 19.0925 -0.5625 18.625 C2.08856572 17.25274335 2.08856572 17.25274335 3 15 C2.34 15 1.68 15 1 15 C0.67 10.05 0.34 5.1 0 0 Z " fill="#7D3126" transform="translate(177,30)"/>
<path d="M0 0 C1.65 0 3.3 0 5 0 C5.33 2.31 5.66 4.62 6 7 C6.66 7 7.32 7 8 7 C8 8.32 8 9.64 8 11 C8.66 11.33 9.32 11.66 10 12 C9.01 12.495 9.01 12.495 8 13 C7.31270746 15.11846285 7.31270746 15.11846285 6.875 17.5625 C6.70742188 18.38878906 6.53984375 19.21507813 6.3671875 20.06640625 C6.24601562 20.70449219 6.12484375 21.34257813 6 22 C5.67 22 5.34 22 5 22 C5 19.03 5 16.06 5 13 C4.01 12.67 3.02 12.34 2 12 C2.66 11.67 3.32 11.34 4 11 C4 9.68 4 8.36 4 7 C2.02 7.66 0.04 8.32 -2 9 C-3.4606285 6.35261084 -4 5.10551666 -4 2 C-2.68 2 -1.36 2 0 2 C0 1.34 0 0.68 0 0 Z " fill="#442724" transform="translate(56,25)"/>
<path d="M0 0 C8.25 0 16.5 0 25 0 C25.33 1.32 25.66 2.64 26 4 C17.28217363 4.16311941 8.68761489 3.65655389 0 3 C0 2.01 0 1.02 0 0 Z " fill="#7B2318" transform="translate(110,13)"/>
<path d="M0 0 C0.33 0 0.66 0 1 0 C1.02578125 0.98097656 1.0515625 1.96195313 1.078125 2.97265625 C1.59718143 16.96096483 3.70032152 28.92326879 12.1953125 40.51171875 C14 43 14 43 15.11328125 45.26171875 C16.28817059 47.56491591 17.69500611 47.95903502 20 49 C20.33 49.66 20.66 50.32 21 51 C19.68 50.67 18.36 50.34 17 50 C17 49.34 17 48.68 17 48 C16.09894531 47.60748047 16.09894531 47.60748047 15.1796875 47.20703125 C7.73786148 43.08602007 3.72226635 32.59042344 1 25 C0.01592765 19.30395769 -0.12748843 13.7689731 -0.0625 8 C-0.05798828 7.22527344 -0.05347656 6.45054688 -0.04882812 5.65234375 C-0.03719758 3.76819476 -0.01926906 1.88408635 0 0 Z " fill="#E9BA7F" transform="translate(72,45)"/>
<path d="M0 0 C0 0.33 0 0.66 0 1 C-1.00289062 0.855625 -2.00578125 0.71125 -3.0390625 0.5625 C-5.5950887 0.19680154 -8.15189485 -0.15520267 -10.7109375 -0.5 C-11.92007813 -0.665 -13.12921875 -0.83 -14.375 -1 C-15.59960938 -1.165 -16.82421875 -1.33 -18.0859375 -1.5 C-21 -2 -21 -2 -22 -3 C-24.59359322 -3.08851529 -27.16039691 -3.11525945 -29.75390625 -3.09765625 C-30.52935287 -3.0962413 -31.3047995 -3.09482635 -32.10374451 -3.09336853 C-34.59003494 -3.08775345 -37.0762366 -3.07519846 -39.5625 -3.0625 C-41.24413933 -3.05748694 -42.92578006 -3.0529237 -44.60742188 -3.04882812 C-48.73831566 -3.03777913 -52.86914276 -3.02050445 -57 -3 C-41.08567512 -11.31647773 -16.15494055 -5.05541442 0 0 Z " fill="#CFA69A" transform="translate(157,17)"/>
<path d="M0 0 C2.97 0.495 2.97 0.495 6 1 C6 1.66 6 2.32 6 3 C6.763125 3.12375 7.52625 3.2475 8.3125 3.375 C11 4 11 4 14 6 C14.6875 9.125 14.6875 9.125 15 12 C8.73581469 10.51637716 4.08486495 6.75837844 -1 3 C-0.67 2.01 -0.34 1.02 0 0 Z " fill="#650A06" transform="translate(163,22)"/>
<path d="M0 0 C0.99 0.66 1.98 1.32 3 2 C2.65259661 9.85131668 0.71548094 16.64925625 -2 24 C-2.66 23.67 -3.32 23.34 -4 23 C-3.52651786 19.54086334 -3.04525236 16.08285411 -2.5625 12.625 C-2.42779297 11.64015625 -2.29308594 10.6553125 -2.15429688 9.640625 C-2.02216797 8.69960938 -1.89003906 7.75859375 -1.75390625 6.7890625 C-1.63345947 5.91975098 -1.5130127 5.05043945 -1.38891602 4.15478516 C-1 2 -1 2 0 0 Z " fill="#A36259" transform="translate(182,49)"/>
<path d="M0 0 C0 3.36502608 -0.5491851 4.16266225 -2.375 6.875 C-4.30356744 9.83614321 -5.84467271 12.63904787 -7 16 C-9.31 15.34 -11.62 14.68 -14 14 C-14 13.34 -14 12.68 -14 12 C-14.99 12.33 -15.98 12.66 -17 13 C-16.67 9.7 -16.34 6.4 -16 3 C-14.02 3.495 -14.02 3.495 -12 4 C-12.061875 4.928125 -12.12375 5.85625 -12.1875 6.8125 C-12.33146455 9.98080688 -12.33146455 9.98080688 -10.48828125 11.69921875 C-9.99714844 12.12847656 -9.50601563 12.55773438 -9 13 C-8.68546875 12.39671875 -8.3709375 11.7934375 -8.046875 11.171875 C-5.76281063 6.90645359 -3.73888023 3.18497204 0 0 Z " fill="#8E5345" transform="translate(80,29)"/>
<path d="M0 0 C1.66611905 -0.042721 3.33382885 -0.04063832 5 0 C6 1 6 1 6.0625 3.5625 C6.041875 4.366875 6.02125 5.17125 6 6 C7.65 6 9.3 6 11 6 C10.4225 6.2475 9.845 6.495 9.25 6.75 C6.61295899 8.21502278 4.92641136 9.67502077 3 12 C2.20318682 14.64184541 2.20318682 14.64184541 2 17 C1.67 17 1.34 17 1 17 C-0.22517308 11.33357449 -0.09228867 5.76291482 0 0 Z " fill="#F67E0D" transform="translate(181,32)"/>
<path d="M0 0 C0.66 0 1.32 0 2 0 C0.32426651 10.6066313 -6.72725483 18.54947662 -14 26 C-14.58203125 24.109375 -14.58203125 24.109375 -15 22 C-13.6875 20.25 -13.6875 20.25 -12 19 C-11.34 19 -10.68 19 -10 19 C-9.814375 17.88625 -9.814375 17.88625 -9.625 16.75 C-8.77764014 13.02161661 -7.7058547 10.7058547 -5 8 C-4.01 8 -3.02 8 -2 8 C-1.7834375 6.576875 -1.7834375 6.576875 -1.5625 5.125 C-1 2 -1 2 0 0 Z " fill="#84706B" transform="translate(177,73)"/>
<path d="M0 0 C0 3 0 3 -2 6 C-1.01 6 -0.02 6 1 6 C0.64267506 8.59060578 0.1383604 9.84567494 -1.625 11.8125 C-4.99131438 13.49565719 -7.4017945 12.76115885 -11 12 C-11 11.01 -11 10.02 -11 9 C-9.1015625 7.24609375 -9.1015625 7.24609375 -6.625 5.4375 C-4.26242203 3.69369245 -2.07750196 2.07750196 0 0 Z " fill="#5D3E3B" transform="translate(161,90)"/>
<path d="M0 0 C2.64 0 5.28 0 8 0 C8.33 0.99 8.66 1.98 9 3 C7.25307205 3.67467562 5.50231475 4.33944156 3.75 5 C2.28820312 5.556875 2.28820312 5.556875 0.796875 6.125 C-2 7 -2 7 -6 7 C-5.67 5.68 -5.34 4.36 -5 3 C-3.35 2.67 -1.7 2.34 0 2 C0 1.34 0 0.68 0 0 Z " fill="#46100E" transform="translate(76,19)"/>
<path d="M0 0 C0.66 0 1.32 0 2 0 C2.8046875 2.6953125 2.8046875 2.6953125 3 6 C0.9453125 8.5546875 0.9453125 8.5546875 -1.875 10.875 C-3.26332031 12.04675781 -3.26332031 12.04675781 -4.6796875 13.2421875 C-7 15 -7 15 -8 15 C-8.125 8.25 -8.125 8.25 -7 6 C-5.15234375 5.3671875 -5.15234375 5.3671875 -2.9375 4.875 C-2.20402344 4.70742188 -1.47054687 4.53984375 -0.71484375 4.3671875 C-0.14894531 4.24601562 0.41695312 4.12484375 1 4 C0.67 2.68 0.34 1.36 0 0 Z " fill="#62362D" transform="translate(84,18)"/>
<path d="M0 0 C1.98 0 3.96 0 6 0 C6.25 3.3125 6.25 3.3125 6 7 C4.25 8.9375 4.25 8.9375 2 10 C0.68 10 -0.64 10 -2 10 C-2.33 8.35 -2.66 6.7 -3 5 C-1.68 4.34 -0.36 3.68 1 3 C0.67 2.01 0.34 1.02 0 0 Z " fill="#9F4838" transform="translate(192,26)"/>
<path d="M0 0 C4.59306496 1.4859916 7.43569245 3.85014682 11 7 C10.34 9.64 9.68 12.28 9 15 C6.68672026 12.17265809 4.43279531 9.30405012 2.25 6.375 C1.60804688 5.52035156 1.60804688 5.52035156 0.953125 4.6484375 C0 3 0 3 0 0 Z " fill="#672822" transform="translate(162,25)"/>
<path d="M0 0 C5.78898419 -0.20674944 10.42932723 0.40837921 16 2 C16 3.65 16 5.3 16 7 C10.72 5.68 5.44 4.36 0 3 C0 2.01 0 1.02 0 0 Z " fill="#F9C21B" transform="translate(136,15)"/>
<path d="M0 0 C2 2 2 2 2 5 C2.66 5 3.32 5 4 5 C4.28875 5.969375 4.5775 6.93875 4.875 7.9375 C5.64214682 11.10664203 5.64214682 11.10664203 8 12 C8.31241455 14.71446979 8.51336592 17.33909361 8.625 20.0625 C8.66367188 20.82111328 8.70234375 21.57972656 8.7421875 22.36132812 C8.83673562 24.24047195 8.91946756 26.12020336 9 28 C6.30667803 23.96001705 5.62178539 19.65214137 4.58789062 14.98046875 C3.26883968 9.33640215 1.38996656 4.97187451 -3 1 C-2.01 0.67 -1.02 0.34 0 0 Z " fill="#F0B964" transform="translate(59,42)"/>
<path d="M0 0 C0.99 0 1.98 0 3 0 C2.34 1.65 1.68 3.3 1 5 C4.465 4.505 4.465 4.505 8 4 C5.25 10.875 5.25 10.875 3 12 C1.32345271 11.72057545 -0.34608154 11.39171753 -2 11 C-2 9.68 -2 8.36 -2 7 C-1.34 7 -0.68 7 0 7 C0 4.69 0 2.38 0 0 Z " fill="#3D2221" transform="translate(69,21)"/>
<path d="M0 0 C3.37462715 0.54723683 5.08235 1.0549 8 3 C7.67 3.66 7.34 4.32 7 5 C5.35 4.01 3.7 3.02 2 2 C4.96283313 4.38672669 7.94270509 6.7353371 11 9 C10.67 9.66 10.34 10.32 10 11 C5.05770013 9.73569073 2.17423736 8.03993846 -1 4 C-0.8125 1.6875 -0.8125 1.6875 0 0 Z " fill="#875A50" transform="translate(90,96)"/>
<path d="M0 0 C3.10600335 1.45444451 6.20947021 2.91422352 9.3125 4.375 C10.19357422 4.7875 11.07464844 5.2 11.98242188 5.625 C13.25375977 6.22441406 13.25375977 6.22441406 14.55078125 6.8359375 C15.33106689 7.20251465 16.11135254 7.5690918 16.9152832 7.94677734 C19 9 19 9 22 11 C20.58344207 11.0272415 19.16672955 11.04650467 17.75 11.0625 C16.56664062 11.07990234 16.56664062 11.07990234 15.359375 11.09765625 C13.03714857 11.00153761 11.1699279 10.84012695 9 10 C8.67 9.01 8.34 8.02 8 7 C6.13692349 5.62322215 6.13692349 5.62322215 3.9375 4.4375 C1.71484375 3.18359375 1.71484375 3.18359375 0 2 C0 1.34 0 0.68 0 0 Z " fill="#572618" transform="translate(91,97)"/>
<path d="M0 0 C1.98 0 3.96 0 6 0 C6.33 0.66 6.66 1.32 7 2 C7.66 2.268125 8.32 2.53625 9 2.8125 C11 4 11 4 11.75 6.625 C11.87375 7.800625 11.87375 7.800625 12 9 C11.01 9.495 11.01 9.495 10 10 C9.67 8.35 9.34 6.7 9 5 C7.35 4.67 5.7 4.34 4 4 C4.33 7.96 4.66 11.92 5 16 C4.34 16 3.68 16 3 16 C3 11.71 3 7.42 3 3 C2.01 2.67 1.02 2.34 0 2 C0 1.34 0 0.68 0 0 Z " fill="#D75B13" transform="translate(177,28)"/>
<path d="M0 0 C-0.375 1.9375 -0.375 1.9375 -1 4 C-4.21451269 5.60725635 -7.43612536 5.05748185 -11 5 C-10.6875 3.0625 -10.6875 3.0625 -10 1 C-6.52674819 -0.1577506 -3.63932552 -0.06866652 0 0 Z " fill="#7C2A1A" transform="translate(105,14)"/>
<path d="M0 0 C-1.26776456 2.53552912 -2.46823065 2.84919575 -5 4 C-5.99 4.495 -5.99 4.495 -7 5 C-6.67 8.63 -6.34 12.26 -6 16 C-6.99 15.67 -7.98 15.34 -9 15 C-9 10.38 -9 5.76 -9 1 C-3.375 -1.25 -3.375 -1.25 0 0 Z " fill="#6F5952" transform="translate(57,25)"/>
<path d="M0 0 C6.04050927 -0.32784311 11.14108486 0.86906951 16.9375 2.5 C17.81212891 2.73847656 18.68675781 2.97695312 19.58789062 3.22265625 C21.72755439 3.80726384 23.86465572 4.39984344 26 5 C26 5.33 26 5.66 26 6 C24.48792969 5.78150391 24.48792969 5.78150391 22.9453125 5.55859375 C20.44194995 5.20415727 17.93685633 4.86158195 15.4296875 4.53515625 C14.25664062 4.37917969 13.08359375 4.22320313 11.875 4.0625 C10.10769531 3.83240234 10.10769531 3.83240234 8.3046875 3.59765625 C5.28225146 3.05104548 2.78957468 2.25794028 0 1 C0 0.67 0 0.34 0 0 Z " fill="#F3C588" transform="translate(131,12)"/>
<path d="M0 0 C0.66 1.32 1.32 2.64 2 4 C1.54625 4.433125 1.0925 4.86625 0.625 5.3125 C-1.20024334 7.10798342 -1.20024334 7.10798342 -3 10 C-6.125 10.6875 -6.125 10.6875 -9 11 C-6.22364768 6.98971331 -3.59478807 3.32850747 0 0 Z " fill="#482E2C" transform="translate(166,86)"/>
<path d="M0 0 C4.455 0.99 4.455 0.99 9 2 C8.01 2.33 7.02 2.66 6 3 C6.33 4.65 6.66 6.3 7 8 C9.31 7.34 11.62 6.68 14 6 C14 7.32 14 8.64 14 10 C11.03 10 8.06 10 5 10 C4.9175 9.05125 4.835 8.1025 4.75 7.125 C4.34925077 3.89538209 4.34925077 3.89538209 1.9375 2.625 C1.298125 2.41875 0.65875 2.2125 0 2 C0 1.34 0 0.68 0 0 Z " fill="#C75F36" transform="translate(183,28)"/>
<path d="M0 0 C4 1 4 1 5 2 C4.82364548 4.69082872 4.38164079 7.32851446 4 10 C3.01 9.67 2.02 9.34 1 9 C0.67 6.03 0.34 3.06 0 0 Z " fill="#F7990D" transform="translate(63,44)"/>
<path d="M0 0 C0.66 0.99 1.32 1.98 2 3 C2.66 3.33 3.32 3.66 4 4 C3.690625 5.03125 3.38125 6.0625 3.0625 7.125 C2.12497188 10.38972557 1.49227298 13.63613462 1 17 C0.34 17 -0.32 17 -1 17 C-1.33 17.66 -1.66 18.32 -2 19 C-1.34 12.73 -0.68 6.46 0 0 Z " fill="#844A46" transform="translate(174,53)"/>
<path d="M0 0 C2.31 0 4.62 0 7 0 C7.33 1.32 7.66 2.64 8 4 C6.02 4.99 4.04 5.98 2 7 C1.34 4.69 0.68 2.38 0 0 Z " fill="#EE8013" transform="translate(85,17)"/>
<path d="M0 0 C2.9375 0.8125 2.9375 0.8125 6 2 C6.33 2.99 6.66 3.98 7 5 C6.01 5.495 6.01 5.495 5 6 C5 7.65 5 9.3 5 11 C1.7089159 7.39042389 0.45336079 4.87362847 0 0 Z " fill="#D58647" transform="translate(72,77)"/>
<path d="M0 0 C0.99 0 1.98 0 3 0 C3.21432579 6.64409958 2.51233701 12.53205867 1 19 C0.67 19 0.34 19 0 19 C-0.07654536 14.48382401 -0.10228696 10.40914783 1 6 C0.34 5.67 -0.32 5.34 -1 5 C-0.67 3.35 -0.34 1.7 0 0 Z " fill="#88392A" transform="translate(178,50)"/>
<path d="M0 0 C1.32 0 2.64 0 4 0 C4 3.63 4 7.26 4 11 C4.66 11 5.32 11 6 11 C5.25 12.9375 5.25 12.9375 4 15 C1.875 15.75 1.875 15.75 0 16 C0.495 15.2575 0.495 15.2575 1 14.5 C2.01173266 11.97066836 2.1062975 10.55151396 2.0625 7.875 C2 4 2 4 3 2 C2.01 1.67 1.02 1.34 0 1 C0 0.67 0 0.34 0 0 Z " fill="#592726" transform="translate(174,34)"/>
<path d="M0 0 C1.33333333 0 2.66666667 0 4 0 C4 2.31 4 4.62 4 7 C3.401875 7.144375 2.80375 7.28875 2.1875 7.4375 C0.43849596 7.8872439 -1.28677023 8.42892341 -3 9 C-2.01 6.03 -1.02 3.06 0 0 Z " fill="#7A443E" transform="translate(171,72)"/>
<path d="M0 0 C0 0.99 0 1.98 0 3 C4.95 3 9.9 3 15 3 C15 3.33 15 3.66 15 4 C4.605 4.495 4.605 4.495 -6 5 C-5.67 3.68 -5.34 2.36 -5 1 C-2 0 -2 0 0 0 Z " fill="#CD6630" transform="translate(110,13)"/>
<path d="M0 0 C2.75457718 0.37994168 3.82020574 0.8073633 5.75 2.875 C7 5 7 5 7 8 C6.01 8.33 5.02 8.66 4 9 C3.67 8.01 3.34 7.02 3 6 C2.34 6 1.68 6 1 6 C0.67 4.02 0.34 2.04 0 0 Z " fill="#7F392A" transform="translate(76,82)"/>
<path d="M0 0 C0.66 0 1.32 0 2 0 C1.41892368 3.7602985 0.34800504 6.53035032 -1.5625 9.8125 C-2.01753906 10.60269531 -2.47257813 11.39289063 -2.94140625 12.20703125 C-3.29074219 12.79871094 -3.64007813 13.39039062 -4 14 C-4.66 13.67 -5.32 13.34 -6 13 C-5.67 11.35 -5.34 9.7 -5 8 C-4.01 8 -3.02 8 -2 8 C-1.7834375 6.576875 -1.7834375 6.576875 -1.5625 5.125 C-1 2 -1 2 0 0 Z " fill="#9C7A71" transform="translate(177,73)"/>
<path d="M0 0 C1.32 0 2.64 0 4 0 C3.71758359 1.46015291 3.42373386 2.91809793 3.125 4.375 C2.96257812 5.18710938 2.80015625 5.99921875 2.6328125 6.8359375 C2 9 2 9 0 11 C-1.37432457 7.18243176 -0.67975039 3.92744671 0 0 Z " fill="#C17F69" transform="translate(179,62)"/>
<path d="M0 0 C0 0.66 0 1.32 0 2 C2.97 2.495 2.97 2.495 6 3 C2.8745041 5.64465038 -0.08788267 6.84414715 -4 8 C-4 7.34 -4 6.68 -4 6 C-3.01 6 -2.02 6 -1 6 C-1 4.68 -1 3.36 -1 2 C-1.99 1.67 -2.98 1.34 -4 1 C-2 0 -2 0 0 0 Z " fill="#BC7263" transform="translate(150,100)"/>
<path d="M0 0 C5.44567686 1.02862785 10.11817117 2.24614784 15 5 C11.96541304 5.95721871 10.00458518 6.00893515 6.9375 5.1875 C6.26589844 5.01605469 5.59429687 4.84460938 4.90234375 4.66796875 C3 4 3 4 0 2 C0 1.34 0 0.68 0 0 Z " fill="#E5C3A6" transform="translate(98,99)"/>
<path d="M0 0 C3.79379058 1.49041773 5.68343758 3.69062512 8 7 C8 7.66 8 8.32 8 9 C8.639375 9.28875 9.27875 9.5775 9.9375 9.875 C12 11 12 11 13 13 C11.68 12.67 10.36 12.34 9 12 C9 11.34 9 10.68 9 10 C8.443125 9.79375 7.88625 9.5875 7.3125 9.375 C4.02987629 7.42316968 2.29326754 5.05769006 0 2 C0 1.34 0 0.68 0 0 Z " fill="#E2B27A" transform="translate(80,83)"/>
<path d="M0 0 C0.33 0.66 0.66 1.32 1 2 C3.52733235 2.65555119 3.52733235 2.65555119 6 3 C5.67 4.32 5.34 5.64 5 7 C2.33333333 5.66666667 -0.33333333 4.33333333 -3 3 C-3.33 3.99 -3.66 4.98 -4 6 C-4 4.35 -4 2.7 -4 1 C-2 0 -2 0 0 0 Z " fill="#CD6516" transform="translate(66,41)"/>
<path d="M0 0 C0.556875 0.226875 1.11375 0.45375 1.6875 0.6875 C-2.62664962 4.49410261 -6.466266 6.6875 -12.3125 6.6875 C-3.64663462 -0.49278846 -3.64663462 -0.49278846 0 0 Z " fill="#EDCCAB" transform="translate(95.3125,20.3125)"/>
<path d="M0 0 C0.66 0 1.32 0 2 0 C2.66 0.66 3.32 1.32 4 2 C4.66 2 5.32 2 6 2 C6.33 1.34 6.66 0.68 7 0 C7.92091738 2.57856865 8.18506902 3.5943287 7.0234375 6.140625 C6.51683594 7.06101562 6.51683594 7.06101562 6 8 C4.9970458 6.85675161 3.99770973 5.71032809 3 4.5625 C2.443125 3.92441406 1.88625 3.28632812 1.3125 2.62890625 C0 1 0 1 0 0 Z " fill="#C27C5C" transform="translate(77,88)"/>
<path d="M0 0 C2.59335905 2.59335905 2.27726563 4.48747032 2.36328125 8.02734375 C1.90495491 10.51610505 0.90294128 11.39831592 -1 13 C-1.0272415 11.58344207 -1.04650467 10.16672955 -1.0625 8.75 C-1.07410156 7.96109375 -1.08570312 7.1721875 -1.09765625 6.359375 C-1.00385306 4.09308998 -0.63241063 2.1711105 0 0 Z " fill="#E9DCD2" transform="translate(74,40)"/>
<path d="M0 0 C7.75 -0.125 7.75 -0.125 10 1 C10 1.66 10 2.32 10 3 C6.7 3 3.4 3 0 3 C0 2.01 0 1.02 0 0 Z " fill="#EF910E" transform="translate(136,15)"/>
<path d="M0 0 C-0.5775 0.2475 -1.155 0.495 -1.75 0.75 C-4.38704101 2.21502278 -6.07358864 3.67502077 -8 6 C-8.79681318 8.64184541 -8.79681318 8.64184541 -9 11 C-9.33 11 -9.66 11 -10 11 C-10 7.7 -10 4.4 -10 1 C-6.52674819 -0.1577506 -3.63932552 -0.06866652 0 0 Z " fill="#E79964" transform="translate(192,38)"/>
<path d="M0 0 C2.97 0 5.94 0 9 0 C9.33 0.99 9.66 1.98 10 3 C7.03 3 4.06 3 1 3 C0.67 2.01 0.34 1.02 0 0 Z " fill="#46110F" transform="translate(125,13)"/>
<path d="M0 0 C4.41889613 1.35021826 6.34345343 3.26115668 9 7 C8.34 8.32 7.68 9.64 7 11 C6.01941648 9.54261898 5.04057868 8.08406325 4.0625 6.625 C3.51722656 5.81289063 2.97195312 5.00078125 2.41015625 4.1640625 C1 2 1 2 0 0 Z " fill="#74423F" transform="translate(163,29)"/>
<path d="M0 0 C0 1.32 0 2.64 0 4 C-2.3125 4.625 -2.3125 4.625 -5 5 C-5.99 4.34 -6.98 3.68 -8 3 C-3.375 0 -3.375 0 0 0 Z " fill="#8F3C2C" transform="translate(149,102)"/>
<path d="M0 0 C0.99 0.33 1.98 0.66 3 1 C2.67 2.32 2.34 3.64 2 5 C0.0625 4.625 0.0625 4.625 -2 4 C-2.33 3.34 -2.66 2.68 -3 2 C-2.01 1.34 -1.02 0.68 0 0 Z M-3 5 C-2.67 5 -2.34 5 -2 5 C-2 6.98 -2 8.96 -2 11 C-2.66 10.01 -3.32 9.02 -4 8 C-3.67 7.01 -3.34 6.02 -3 5 Z " fill="#62322E" transform="translate(172,78)"/>
<path d="M0 0 C1.65 0 3.3 0 5 0 C5 0.99 5 1.98 5 3 C1.7 3.33 -1.6 3.66 -5 4 C-4.67 3.34 -4.34 2.68 -4 2 C-2.68 2 -1.36 2 0 2 C0 1.34 0 0.68 0 0 Z " fill="#31100F" transform="translate(56,25)"/>
<path d="M0 0 C1.67542976 0.28604898 3.34385343 0.61781233 5 1 C5 2.32 5 3.64 5 5 C3.35 5 1.7 5 0 5 C-0.5625 3.0625 -0.5625 3.0625 -1 1 C-0.67 0.67 -0.34 0.34 0 0 Z " fill="#B2390B" transform="translate(154,18)"/>
<path d="M0 0 C0.99 0 1.98 0 3 0 C3 0.66 3 1.32 3 2 C-4.28571429 5.42857143 -4.28571429 5.42857143 -9 5 C-8.34 4.01 -7.68 3.02 -7 2 C-3.375 1.8125 -3.375 1.8125 0 2 C0 1.34 0 0.68 0 0 Z " fill="#E7BAAC" transform="translate(143,101)"/>
<path d="M0 0 C0.66 0.66 1.32 1.32 2 2 C0.35 4.97 -1.3 7.94 -3 11 C-3.66 10.67 -4.32 10.34 -5 10 C-4.67 9.01 -4.34 8.02 -4 7 C-3.34 7 -2.68 7 -2 7 C-2 5.35 -2 3.7 -2 2 C-1.34 2 -0.68 2 0 2 C0 1.34 0 0.68 0 0 Z " fill="#E8DDD8" transform="translate(169,73)"/>
<path d="M0 0 C0.66 0 1.32 0 2 0 C2.33 1.65 2.66 3.3 3 5 C3.99 4.67 4.98 4.34 6 4 C5.67 5.32 5.34 6.64 5 8 C4.01 8 3.02 8 2 8 C0.74335022 5.09399739 0 3.20395416 0 0 Z " fill="#F8C34E" transform="translate(68,70)"/>
<path d="M0 0 C0.99 0.33 1.98 0.66 3 1 C2.79375 1.61875 2.5875 2.2375 2.375 2.875 C2.25125 3.57625 2.1275 4.2775 2 5 C2.66 5.66 3.32 6.32 4 7 C4.66 7.66 5.32 8.32 6 9 C5.34 9.66 4.68 10.32 4 11 C2 9.4375 2 9.4375 0 7 C-0.25 3.25 -0.25 3.25 0 0 Z " fill="#6A3130" transform="translate(67,32)"/>
<path d="M0 0 C0.99 0.99 1.98 1.98 3 3 C3.99 2.34 4.98 1.68 6 1 C6.33 1.99 6.66 2.98 7 4 C1.375 5.125 1.375 5.125 -2 4 C-2 3.01 -2 2.02 -2 1 C-1.34 0.67 -0.68 0.34 0 0 Z " fill="#885246" transform="translate(152,98)"/>
<path d="M0 0 C-0.33 1.65 -0.66 3.3 -1 5 C-1.99 5 -2.98 5 -4 5 C-5.6875 3 -5.6875 3 -7 1 C-4 0 -4 0 0 0 Z " fill="#E7781B" transform="translate(68,22)"/>
<path d="M0 0 C2 2 2 2 2 5 C2.66 5 3.32 5 4 5 C4.33 6.65 4.66 8.3 5 10 C2.0702992 7.17493137 -0.50174717 4.21203935 -3 1 C-2.01 0.67 -1.02 0.34 0 0 Z " fill="#AA806A" transform="translate(59,42)"/>
<path d="M0 0 C0.99 0.495 0.99 0.495 2 1 C1.98839844 1.59167969 1.97679687 2.18335938 1.96484375 2.79296875 C1.91677614 7.00231785 1.93993117 10.8922333 3 15 C2.01 14.67 1.02 14.34 0 14 C0 9.38 0 4.76 0 0 Z " fill="#8D7E79" transform="translate(48,26)"/>
<path d="M0 0 C0.99 0 1.98 0 3 0 C2.67 0.66 2.34 1.32 2 2 C1.77532169 3.53668865 1.59203195 5.07968054 1.4375 6.625 C1.35371094 7.44226563 1.26992187 8.25953125 1.18359375 9.1015625 C1.12300781 9.72804688 1.06242187 10.35453125 1 11 C0.01 11 -0.98 11 -2 11 C-2 9.68 -2 8.36 -2 7 C-1.34 7 -0.68 7 0 7 C0 4.69 0 2.38 0 0 Z " fill="#5F221D" transform="translate(69,21)"/>
<path d="M0 0 C2 1 2 1 3.125 4.0625 C3.41375 5.031875 3.7025 6.00125 4 7 C3.34 7.66 2.68 8.32 2 9 C1.01 6.36 0.02 3.72 -1 1 C-0.67 0.67 -0.34 0.34 0 0 Z " fill="#4F3235" transform="translate(172,40)"/>
<path d="M0 0 C-0.3125 1.9375 -0.3125 1.9375 -1 4 C-1.99 4.33 -2.98 4.66 -4 5 C-4.33 3.68 -4.66 2.36 -5 1 C-3 0 -3 0 0 0 Z " fill="#594744" transform="translate(162,96)"/>
<path d="M0 0 C0.66 0 1.32 0 2 0 C2 0.66 2 1.32 2 2 C3.65 2.33 5.3 2.66 7 3 C6.67 4.65 6.34 6.3 6 8 C1.125 3.375 1.125 3.375 0 0 Z " fill="#EAE4D7" transform="translate(83,84)"/>
<path d="M0 0 C1.32 0.33 2.64 0.66 4 1 C3.67 2.98 3.34 4.96 3 7 C2.01 6.34 1.02 5.68 0 5 C-0.1875 2.375 -0.1875 2.375 0 0 Z " fill="#A4766F" transform="translate(64,32)"/>
<path d="M0 0 C0.99 0 1.98 0 3 0 C1.70700306 2.88437779 0.34058637 4.87219421 -2 7 C-1.125 1.125 -1.125 1.125 0 0 Z " fill="#E0D8D7" transform="translate(162,84)"/>
<path d="M0 0 C2.31 0 4.62 0 7 0 C7 0.99 7 1.98 7 3 C4.69 2.67 2.38 2.34 0 2 C0 1.34 0 0.68 0 0 Z " fill="#675753" transform="translate(51,40)"/>
<path d="M0 0 C1.65 1.65 3.3 3.3 5 5 C3.02 5.99 3.02 5.99 1 7 C0.67 4.69 0.34 2.38 0 0 Z " fill="#E7D4D0" transform="translate(163,30)"/>
<path d="M0 0 C1.32 0 2.64 0 4 0 C4.33 0.99 4.66 1.98 5 3 C4 4 4 4 1.4375 4.0625 C0.2309375 4.0315625 0.2309375 4.0315625 -1 4 C-0.67 2.68 -0.34 1.36 0 0 Z " fill="#2E0A0F" transform="translate(77,20)"/>
</svg>
